<svg id="Capa_1" enable-background="new 0 0 512.008 512.008" height="512" viewBox="0 0 512.008 512.008" width="512" xmlns="http://www.w3.org/2000/svg"><g><g><path d="m492.453 117.333c-9.627-11.324-23.673-17.819-38.537-17.819-15.71 0-97.098 0-112.679 0v45.386h112.679c1.985 0 3.248.995 3.958 1.83s1.49 2.242 1.169 4.202l-29.068 178.246c-.412 2.525-2.568 4.358-5.128 4.358-17.305 0-66.248 0-83.611 0v45.386h83.611c24.918 0 45.913-17.85 49.922-42.44l29.068-178.245c2.393-14.671-1.756-29.579-11.384-40.904z" fill="#8ac9fe"/><path d="m492.453 117.333c-9.627-11.324-23.673-17.819-38.537-17.819-4.84 0-15.919 0-29.384 0 14.864 0 28.91 6.495 38.537 17.819 9.628 11.325 13.777 26.233 11.385 40.903l-29.068 178.245c-4.009 24.59-25.004 42.44-49.922 42.44h29.384c24.918 0 45.913-17.85 49.922-42.44l29.068-178.245c2.392-14.67-1.757-29.578-11.385-40.903z" fill="#60b7ff"/><path d="m366.457 456.999 24.875-427.267c.312-5.357-3.948-9.872-9.314-9.872h-181.124-2.938-181.125c-5.366 0-9.625 4.515-9.314 9.872l24.875 427.267c1.149 19.734 17.487 35.149 37.254 35.149h128.309 2.938 128.309c19.768 0 36.106-15.415 37.255-35.149z" fill="#fd4755"/><circle cx="200.894" cy="256.004" fill="#ffd3d6" r="130.176"/><path d="m384.957 19.86h-41.137c5.366 0 9.625 4.515 9.314 9.872l-24.875 427.267c-1.149 19.734-17.487 35.149-37.254 35.149h41.137c19.767 0 36.106-15.415 37.254-35.149l24.874-427.267c.312-5.357-3.947-9.872-9.313-9.872z" fill="#fb2b3a"/><path d="m214.2 178.725 16.986 34.418c1.585 3.212 4.649 5.438 8.193 5.953l37.982 5.519c12.171 1.768 17.03 16.725 8.224 25.309l-27.485 26.791c-2.565 2.5-3.735 6.102-3.129 9.631l6.488 37.829c2.079 12.121-10.644 21.365-21.529 15.642l-33.972-17.86c-3.17-1.667-6.957-1.667-10.127 0l-33.972 17.86c-10.886 5.723-23.608-3.521-21.529-15.642l6.488-37.829c.605-3.53-.565-7.132-3.129-9.631l-27.484-26.791c-8.807-8.584-3.947-23.541 8.224-25.309l37.982-5.519c3.544-.515 6.608-2.741 8.193-5.953l16.986-34.418c5.441-11.028 21.167-11.028 26.61 0z" fill="#ffc344"/></g><g><path d="m200.894 393.68c75.915 0 137.677-61.761 137.677-137.676s-61.762-137.676-137.677-137.676-137.676 61.761-137.676 137.676 61.761 137.676 137.676 137.676zm0-260.352c67.645 0 122.677 55.032 122.677 122.676s-55.033 122.676-122.677 122.676-122.676-55.032-122.676-122.676 55.032-122.676 122.676-122.676z"/><path d="m453.916 92.014h-55.759l3.601-61.847c.02-.331.028-.66.028-.986 0-9.275-7.55-16.82-16.829-16.82h-368.126c-9.28-.001-16.831 7.545-16.831 16.82 0 .34.01.683.029.987l19.514 335.165c.241 4.135 3.788 7.3 7.923 7.051 4.136-.241 7.293-3.788 7.052-7.923l-19.514-335.165c-.001-.013-.003-.102-.004-.115 0-1.004.821-1.821 1.831-1.821h368.126c1.009 0 1.829.816 1.829 1.82l-.003.116c-1.431 24.581-23.445 402.712-24.875 427.267-.917 15.749-13.993 28.085-29.768 28.085h-262.494c-15.775 0-28.85-12.336-29.767-28.085l-3.328-57.161c-.241-4.135-3.762-7.292-7.923-7.051-4.136.241-7.293 3.788-7.052 7.923l3.328 57.161c1.378 23.671 21.03 42.213 44.741 42.213h262.494c23.71 0 43.363-18.542 44.742-42.213l4.134-71.013h43.831c28.611 0 52.721-20.496 57.325-48.733l29.068-178.247c5.74-35.247-21.444-67.428-57.323-67.428zm-59.274 60.386h56.563l-28.316 173.637h-38.356zm101.795 4.629-29.068 178.246c-3.415 20.945-21.298 36.147-42.521 36.147h-42.957c.648-11.131 1.076-18.479 1.769-30.386h41.188c6.253 0 11.523-4.479 12.53-10.651l29.068-178.247c1.243-7.611-4.566-14.739-12.53-14.739h-58.401c.903-15.516.52-8.935 1.769-30.386h56.632c26.559.001 46.783 23.811 42.521 50.016z"/><path d="m139.415 285.078-6.488 37.829c-3.13 18.243 16.033 32.158 32.411 23.549l33.973-17.86c.984-.519 2.162-.519 3.146 0l33.973 17.86c16.359 8.599 35.54-5.311 32.411-23.549l-6.488-37.829c-.188-1.097.176-2.215.974-2.993l27.484-26.791c13.253-12.92 5.929-35.442-12.381-38.102l-37.982-5.52c-1.102-.16-2.054-.851-2.546-1.85l-16.986-34.417c-8.19-16.598-31.875-16.592-40.063 0l-16.986 34.418c-.492.998-1.444 1.689-2.546 1.85l-37.982 5.519c-18.318 2.661-25.629 25.187-12.38 38.102l27.484 26.792c.796.776 1.16 1.895.972 2.992zm-13.921-53.042 37.981-5.519c5.989-.87 11.164-4.629 13.842-10.056l16.986-34.418c2.693-5.46 10.461-5.471 13.16 0l16.986 34.417c2.678 5.427 7.853 9.186 13.841 10.056l37.982 5.519c6.036.878 8.427 8.268 4.066 12.517l-27.484 26.791c-4.333 4.224-6.31 10.306-5.286 16.27l6.488 37.829c1.032 6.023-5.267 10.565-10.647 7.735l-33.973-17.86c-5.356-2.816-11.752-2.815-17.107 0l-33.973 17.86c-5.389 2.835-11.678-1.723-10.647-7.735l6.488-37.829c1.023-5.965-.953-12.047-5.286-16.27l-27.484-26.791c-4.359-4.25-1.969-11.638 4.067-12.516z"/></g></g></svg>