<svg id="Capa_1" enable-background="new 0 0 512 512" height="512" viewBox="0 0 512 512" width="512" xmlns="http://www.w3.org/2000/svg"><g><g><g><path d="m294.449 472.295h-210.581c-11.591 0-22.68-4.729-30.704-13.094l-29.86-31.131c-10.141-10.574-15.804-24.657-15.804-39.308v-325.065c0-13.25 10.742-23.992 23.992-23.992h315.167c13.25 0 23.992 10.742 23.992 23.992v325.644c0 14.781-5.763 28.979-16.065 39.578l-29.629 30.484c-8.01 8.242-19.014 12.892-30.508 12.892z" fill="#b3edf2"/><path d="m346.659 39.705h-53.93c13.25 0 23.992 10.742 23.992 23.992v325.644c0 14.781-5.763 28.979-16.065 39.578l-29.629 30.484c-8.01 8.242-19.015 12.892-30.508 12.892h53.929c11.493 0 22.498-4.65 30.508-12.892l29.629-30.484c10.302-10.599 16.065-24.797 16.065-39.578v-325.644c.001-13.25-10.74-23.992-23.991-23.992z" fill="#7ae5ed"/><g><path d="m438.018 356.711h-67.366v-40.474h67.366c14.341 0 26.008-11.667 26.008-26.009v-136.633c0-14.341-11.667-26.009-26.008-26.009h-67.366v-40.475h67.366c36.658 0 66.482 29.824 66.482 66.483v136.634c0 36.659-29.824 66.483-66.482 66.483z" fill="#b3edf2"/></g><path d="m438.018 87.111h-40.368c36.658 0 66.482 29.824 66.482 66.483v136.633c0 36.659-29.824 66.483-66.482 66.483h40.368c36.658 0 66.482-29.824 66.482-66.483v-136.632c0-36.659-29.824-66.484-66.482-66.484z" fill="#7ae5ed"/></g><path d="m245.625 259.313 6.367 19.176c1.984 5.975-1.692 12.343-7.859 13.612l-19.79 4.074c-2.22.457-4.233 1.619-5.739 3.313l-13.423 15.102c-4.183 4.706-11.535 4.706-15.718 0l-13.423-15.102c-1.506-1.694-3.519-2.856-5.739-3.313l-19.79-4.074c-6.167-1.269-9.843-7.637-7.859-13.612l6.367-19.176c.714-2.151.714-4.476 0-6.627l-6.367-19.176c-1.984-5.975 1.692-12.343 7.859-13.612l19.79-4.074c2.22-.457 4.233-1.619 5.739-3.313l13.423-15.102c4.183-4.706 11.535-4.706 15.718 0l13.423 15.102c1.506 1.694 3.519 2.856 5.739 3.313l19.79 4.074c6.167 1.269 9.843 7.637 7.859 13.612l-6.367 19.176c-.715 2.152-.715 4.476 0 6.627z" fill="#ffd15b"/><path d="m245.625 259.313c-.714-2.151-.714-4.476 0-6.627l6.367-19.176c1.984-5.975-1.692-12.343-7.859-13.612l-19.79-4.074c-2.22-.457-4.233-1.619-5.739-3.313l-13.423-15.102c-4.182-4.706-11.535-4.706-15.718 0l-7.337 8.255c2.572.222 5.078 1.378 6.95 3.483l2.368 3.364c1.506 1.694 3.519 2.856 5.739 3.313l19.79 4.074c6.167 1.269 9.843 7.637 7.859 13.612l-6.367 19.176c-.714 2.151-.714 4.476 0 6.627l6.367 19.176c1.984 5.975-1.692 12.343-7.859 13.612l-19.79 4.074c-2.22.457-4.233 1.619-5.739 3.313l-3.301 3.928c-1.561 1.756-3.563 2.855-5.677 3.301l6.998 7.874c4.183 4.706 11.535 4.706 15.718 0l13.423-15.102c1.506-1.694 3.519-2.856 5.739-3.313l19.79-4.074c6.167-1.269 9.843-7.637 7.859-13.612z" fill="#ffc344"/></g><g><path d="m438.018 79.611h-59.866v-15.914c0-17.365-14.127-31.492-31.492-31.492h-315.168c-17.365 0-31.492 14.128-31.492 31.492v325.064c0 16.667 6.354 32.471 17.892 44.5l29.859 31.131c9.39 9.789 22.554 15.402 36.117 15.402h210.581c13.439 0 26.52-5.527 35.886-15.165l29.629-30.484c11.729-12.067 18.188-27.979 18.188-44.805v-25.13h59.866c40.794 0 73.982-33.188 73.982-73.983v-136.632c0-40.795-33.188-73.984-73.982-73.984zm-74.867 309.73c0 12.9-4.952 25.099-13.943 34.35l-29.63 30.484c-6.559 6.749-15.718 10.619-25.129 10.619h-210.581c-9.498 0-18.717-3.931-25.291-10.786l-29.859-31.131c-8.846-9.221-13.718-21.337-13.718-34.115v-294.151h29.807c4.143 0 7.5-3.358 7.5-7.5s-3.357-7.5-7.5-7.5h-29.807v-15.914c0-9.094 7.398-16.492 16.492-16.492h315.167c9.094 0 16.492 7.398 16.492 16.492v15.914h-283.059c-4.143 0-7.5 3.358-7.5 7.5s3.357 7.5 7.5 7.5h283.06v294.73zm133.849-99.113c0 32.523-26.459 58.983-58.982 58.983h-59.866v-214.126h59.866c10.205 0 18.508 8.303 18.508 18.509v136.633c0 10.206-8.303 18.509-18.508 18.509h-32.224c-4.143 0-7.5 3.358-7.5 7.5s3.357 7.5 7.5 7.5h32.224c18.477 0 33.508-15.032 33.508-33.509v-136.632c0-18.477-15.031-33.509-33.508-33.509h-59.866v-25.475h59.866c32.523 0 58.982 26.46 58.982 58.983z"/><path d="m259.11 235.875c1.62-4.879 1.075-10.231-1.495-14.683-2.571-4.453-6.934-7.602-11.971-8.639l-19.791-4.074c-.632-.13-1.216-.467-1.645-.949l-13.423-15.102c-3.415-3.843-8.323-6.047-13.465-6.047-5.141 0-10.049 2.204-13.464 6.047l-13.423 15.102c-.429.482-1.013.82-1.645.95l-19.792 4.074c-5.035 1.037-9.398 4.185-11.969 8.638s-3.115 9.805-1.495 14.683l6.367 19.174c.203.614.203 1.29 0 1.902l-6.367 19.175c-1.62 4.879-1.075 10.231 1.495 14.684s6.934 7.601 11.97 8.638l19.792 4.074c.631.13 1.215.467 1.644.949l13.423 15.102c3.415 3.843 8.323 6.047 13.464 6.047 5.142 0 10.05-2.204 13.465-6.047l13.423-15.102c.429-.482 1.013-.82 1.646-.95l19.791-4.074c5.036-1.037 9.398-4.186 11.97-8.639 2.57-4.452 3.115-9.804 1.495-14.683l-6.367-19.176s-.001-.001-.001-.001c-.203-.612-.203-1.286.001-1.899zm-20.603 25.802 6.367 19.176c.371 1.118.003 2.019-.25 2.456-.253.438-.849 1.208-2.003 1.446l-19.789 4.074c-3.778.777-7.271 2.793-9.834 5.677l-13.423 15.102c-.783.88-1.748 1.012-2.254 1.012-.505 0-1.47-.132-2.253-1.012l-13.423-15.103c-2.563-2.884-6.056-4.899-9.832-5.676l-19.79-4.073c-1.154-.238-1.75-1.008-2.003-1.446s-.621-1.339-.25-2.457l6.367-19.177c1.215-3.66 1.215-7.691 0-11.352l-6.367-19.176c-.371-1.118-.003-2.019.25-2.457s.849-1.208 2.002-1.445l19.79-4.074c3.777-.777 7.27-2.792 9.833-5.677l13.423-15.102c.783-.88 1.748-1.012 2.253-1.012.506 0 1.471.132 2.254 1.012l13.423 15.103c2.563 2.883 6.056 4.899 9.833 5.676l19.789 4.074c1.155.237 1.751 1.008 2.004 1.446s.621 1.338.25 2.457l-6.366 19.174c-1.217 3.66-1.217 7.693-.001 11.354z"/><path d="m197.763 246.008-11.378 11.378c-2.929 2.929-2.929 7.678 0 10.606 1.465 1.464 3.385 2.197 5.304 2.197s3.839-.732 5.304-2.197l11.378-11.378c2.929-2.929 2.929-7.678 0-10.606-2.931-2.929-7.679-2.929-10.608 0z"/></g></g></svg>